<mxfile host="app.diagrams.net" modified="2023-10-26T11:38:58.602Z" agent="Mozilla/5.0 (Macintosh; Intel Mac OS X 10_15_7) AppleWebKit/605.1.15 (KHTML, like Gecko) Version/17.0 Safari/605.1.15" etag="7pNw0QurhBhvbW7yjNX_" version="22.0.8" type="github">
  <diagram name="Page-1" id="b5b7bab2-c9e2-2cf4-8b2a-24fd1a2a6d21">
    <mxGraphModel dx="1218" dy="857" grid="1" gridSize="10" guides="1" tooltips="1" connect="1" arrows="1" fold="1" page="1" pageScale="1" pageWidth="4681" pageHeight="3300" background="none" math="0" shadow="0">
      <root>
        <mxCell id="0" />
        <mxCell id="1" parent="0" />
        <mxCell id="F09OvGw66oF53SCfcD_z-9" value="" style="group" vertex="1" connectable="0" parent="1">
          <mxGeometry x="530" y="750" width="360" height="270" as="geometry" />
        </mxCell>
        <mxCell id="F09OvGw66oF53SCfcD_z-4" value="«Annotation»&lt;br&gt;&lt;b&gt;MasterData&lt;br&gt;&lt;/b&gt;" style="html=1;dropTarget=0;whiteSpace=wrap;" vertex="1" parent="F09OvGw66oF53SCfcD_z-9">
          <mxGeometry width="360" height="270" as="geometry" />
        </mxCell>
        <mxCell id="F09OvGw66oF53SCfcD_z-5" value="" style="shape=module;jettyWidth=8;jettyHeight=4;" vertex="1" parent="F09OvGw66oF53SCfcD_z-4">
          <mxGeometry x="1" width="20" height="20" relative="1" as="geometry">
            <mxPoint x="-27" y="7" as="offset" />
          </mxGeometry>
        </mxCell>
        <mxCell id="F09OvGw66oF53SCfcD_z-6" value="MasterData" style="shape=cylinder3;whiteSpace=wrap;html=1;boundedLbl=1;backgroundOutline=1;size=15;" vertex="1" parent="F09OvGw66oF53SCfcD_z-9">
          <mxGeometry x="150" y="90" width="60" height="80" as="geometry" />
        </mxCell>
        <mxCell id="F09OvGw66oF53SCfcD_z-11" value="" style="group" vertex="1" connectable="0" parent="1">
          <mxGeometry x="1640" y="750" width="360" height="270" as="geometry" />
        </mxCell>
        <mxCell id="F09OvGw66oF53SCfcD_z-12" value="&amp;laquo;Annotation&amp;raquo;&lt;br/&gt;&lt;b&gt;Component&lt;/b&gt;" style="html=1;dropTarget=0;whiteSpace=wrap;" vertex="1" parent="F09OvGw66oF53SCfcD_z-11">
          <mxGeometry width="360" height="270" as="geometry" />
        </mxCell>
        <mxCell id="F09OvGw66oF53SCfcD_z-13" value="" style="shape=module;jettyWidth=8;jettyHeight=4;" vertex="1" parent="F09OvGw66oF53SCfcD_z-12">
          <mxGeometry x="1" width="20" height="20" relative="1" as="geometry">
            <mxPoint x="-27" y="7" as="offset" />
          </mxGeometry>
        </mxCell>
        <mxCell id="F09OvGw66oF53SCfcD_z-14" value="MetaData" style="shape=cylinder3;whiteSpace=wrap;html=1;boundedLbl=1;backgroundOutline=1;size=15;" vertex="1" parent="F09OvGw66oF53SCfcD_z-11">
          <mxGeometry x="150" y="90" width="60" height="80" as="geometry" />
        </mxCell>
        <mxCell id="F09OvGw66oF53SCfcD_z-21" value="" style="group" vertex="1" connectable="0" parent="1">
          <mxGeometry x="320" y="250" width="550" height="310" as="geometry" />
        </mxCell>
        <mxCell id="F09OvGw66oF53SCfcD_z-71" value="" style="group" vertex="1" connectable="0" parent="1">
          <mxGeometry x="530" y="50" width="360" height="320" as="geometry" />
        </mxCell>
        <mxCell id="F09OvGw66oF53SCfcD_z-72" value="&amp;laquo;Annotation&amp;raquo;&lt;br/&gt;&lt;b&gt;Component&lt;/b&gt;" style="html=1;dropTarget=0;whiteSpace=wrap;" vertex="1" parent="F09OvGw66oF53SCfcD_z-71">
          <mxGeometry width="360" height="320" as="geometry" />
        </mxCell>
        <mxCell id="F09OvGw66oF53SCfcD_z-73" value="" style="shape=module;jettyWidth=8;jettyHeight=4;" vertex="1" parent="F09OvGw66oF53SCfcD_z-72">
          <mxGeometry x="1" width="20" height="20" relative="1" as="geometry">
            <mxPoint x="-27" y="7" as="offset" />
          </mxGeometry>
        </mxCell>
        <mxCell id="F09OvGw66oF53SCfcD_z-74" value="View" style="html=1;dropTarget=0;whiteSpace=wrap;" vertex="1" parent="F09OvGw66oF53SCfcD_z-71">
          <mxGeometry x="90" y="115" width="180" height="90" as="geometry" />
        </mxCell>
        <mxCell id="F09OvGw66oF53SCfcD_z-75" value="" style="shape=module;jettyWidth=8;jettyHeight=4;" vertex="1" parent="F09OvGw66oF53SCfcD_z-74">
          <mxGeometry x="1" width="20" height="20" relative="1" as="geometry">
            <mxPoint x="-27" y="7" as="offset" />
          </mxGeometry>
        </mxCell>
        <mxCell id="F09OvGw66oF53SCfcD_z-76" value="" style="group" vertex="1" connectable="0" parent="1">
          <mxGeometry x="990" y="50" width="360" height="320" as="geometry" />
        </mxCell>
        <mxCell id="F09OvGw66oF53SCfcD_z-77" value="&amp;laquo;Annotation&amp;raquo;&lt;br/&gt;&lt;b&gt;Component&lt;/b&gt;" style="html=1;dropTarget=0;whiteSpace=wrap;" vertex="1" parent="F09OvGw66oF53SCfcD_z-76">
          <mxGeometry width="360" height="320" as="geometry" />
        </mxCell>
        <mxCell id="F09OvGw66oF53SCfcD_z-78" value="" style="shape=module;jettyWidth=8;jettyHeight=4;" vertex="1" parent="F09OvGw66oF53SCfcD_z-77">
          <mxGeometry x="1" width="20" height="20" relative="1" as="geometry">
            <mxPoint x="-27" y="7" as="offset" />
          </mxGeometry>
        </mxCell>
        <mxCell id="F09OvGw66oF53SCfcD_z-79" value="Edit" style="html=1;dropTarget=0;whiteSpace=wrap;" vertex="1" parent="F09OvGw66oF53SCfcD_z-76">
          <mxGeometry x="90" y="115" width="180" height="90" as="geometry" />
        </mxCell>
        <mxCell id="F09OvGw66oF53SCfcD_z-80" value="" style="shape=module;jettyWidth=8;jettyHeight=4;" vertex="1" parent="F09OvGw66oF53SCfcD_z-79">
          <mxGeometry x="1" width="20" height="20" relative="1" as="geometry">
            <mxPoint x="-27" y="7" as="offset" />
          </mxGeometry>
        </mxCell>
        <mxCell id="F09OvGw66oF53SCfcD_z-81" value="" style="group" vertex="1" connectable="0" parent="1">
          <mxGeometry x="70" y="50" width="360" height="320" as="geometry" />
        </mxCell>
        <mxCell id="F09OvGw66oF53SCfcD_z-82" value="&amp;laquo;Annotation&amp;raquo;&lt;br/&gt;&lt;b&gt;Component&lt;/b&gt;" style="html=1;dropTarget=0;whiteSpace=wrap;" vertex="1" parent="F09OvGw66oF53SCfcD_z-81">
          <mxGeometry width="360" height="320" as="geometry" />
        </mxCell>
        <mxCell id="F09OvGw66oF53SCfcD_z-83" value="" style="shape=module;jettyWidth=8;jettyHeight=4;" vertex="1" parent="F09OvGw66oF53SCfcD_z-82">
          <mxGeometry x="1" width="20" height="20" relative="1" as="geometry">
            <mxPoint x="-27" y="7" as="offset" />
          </mxGeometry>
        </mxCell>
        <mxCell id="F09OvGw66oF53SCfcD_z-84" value="Search" style="html=1;dropTarget=0;whiteSpace=wrap;" vertex="1" parent="F09OvGw66oF53SCfcD_z-81">
          <mxGeometry x="90" y="115" width="180" height="90" as="geometry" />
        </mxCell>
        <mxCell id="F09OvGw66oF53SCfcD_z-85" value="" style="shape=module;jettyWidth=8;jettyHeight=4;" vertex="1" parent="F09OvGw66oF53SCfcD_z-84">
          <mxGeometry x="1" width="20" height="20" relative="1" as="geometry">
            <mxPoint x="-27" y="7" as="offset" />
          </mxGeometry>
        </mxCell>
        <mxCell id="F09OvGw66oF53SCfcD_z-91" style="edgeStyle=orthogonalEdgeStyle;rounded=0;orthogonalLoop=1;jettySize=auto;html=1;exitX=0.5;exitY=0;exitDx=0;exitDy=0;exitPerimeter=0;entryX=0;entryY=0.5;entryDx=0;entryDy=0;" edge="1" parent="1" source="F09OvGw66oF53SCfcD_z-86" target="F09OvGw66oF53SCfcD_z-12">
          <mxGeometry relative="1" as="geometry">
            <mxPoint x="1440" y="884.5384615384614" as="targetPoint" />
          </mxGeometry>
        </mxCell>
        <mxCell id="F09OvGw66oF53SCfcD_z-86" value="" style="shape=cylinder3;whiteSpace=wrap;html=1;boundedLbl=1;backgroundOutline=1;size=15;rotation=90;" vertex="1" parent="1">
          <mxGeometry x="1110" y="795" width="60" height="180" as="geometry" />
        </mxCell>
        <mxCell id="F09OvGw66oF53SCfcD_z-90" style="edgeStyle=orthogonalEdgeStyle;rounded=0;orthogonalLoop=1;jettySize=auto;html=1;exitX=1;exitY=0.5;exitDx=0;exitDy=0;entryX=0.5;entryY=1;entryDx=0;entryDy=0;entryPerimeter=0;" edge="1" parent="1" source="F09OvGw66oF53SCfcD_z-4" target="F09OvGw66oF53SCfcD_z-86">
          <mxGeometry relative="1" as="geometry" />
        </mxCell>
        <mxCell id="F09OvGw66oF53SCfcD_z-92" style="edgeStyle=orthogonalEdgeStyle;rounded=0;orthogonalLoop=1;jettySize=auto;html=1;exitX=0.5;exitY=1;exitDx=0;exitDy=0;entryX=0.25;entryY=0;entryDx=0;entryDy=0;" edge="1" parent="1" source="F09OvGw66oF53SCfcD_z-82" target="F09OvGw66oF53SCfcD_z-4">
          <mxGeometry relative="1" as="geometry" />
        </mxCell>
        <mxCell id="F09OvGw66oF53SCfcD_z-93" style="edgeStyle=orthogonalEdgeStyle;rounded=0;orthogonalLoop=1;jettySize=auto;html=1;exitX=0.5;exitY=1;exitDx=0;exitDy=0;entryX=0.5;entryY=0;entryDx=0;entryDy=0;" edge="1" parent="1" source="F09OvGw66oF53SCfcD_z-72" target="F09OvGw66oF53SCfcD_z-4">
          <mxGeometry relative="1" as="geometry" />
        </mxCell>
        <mxCell id="F09OvGw66oF53SCfcD_z-94" style="edgeStyle=orthogonalEdgeStyle;rounded=0;orthogonalLoop=1;jettySize=auto;html=1;exitX=0.5;exitY=1;exitDx=0;exitDy=0;entryX=0.75;entryY=0;entryDx=0;entryDy=0;" edge="1" parent="1" source="F09OvGw66oF53SCfcD_z-77" target="F09OvGw66oF53SCfcD_z-4">
          <mxGeometry relative="1" as="geometry" />
        </mxCell>
        <mxCell id="F09OvGw66oF53SCfcD_z-95" value="" style="group" vertex="1" connectable="0" parent="1">
          <mxGeometry x="1430" y="50" width="360" height="320" as="geometry" />
        </mxCell>
        <mxCell id="F09OvGw66oF53SCfcD_z-96" value="&amp;laquo;Annotation&amp;raquo;&lt;br/&gt;&lt;b&gt;Component&lt;/b&gt;" style="html=1;dropTarget=0;whiteSpace=wrap;" vertex="1" parent="F09OvGw66oF53SCfcD_z-95">
          <mxGeometry width="360" height="320" as="geometry" />
        </mxCell>
        <mxCell id="F09OvGw66oF53SCfcD_z-97" value="" style="shape=module;jettyWidth=8;jettyHeight=4;" vertex="1" parent="F09OvGw66oF53SCfcD_z-96">
          <mxGeometry x="1" width="20" height="20" relative="1" as="geometry">
            <mxPoint x="-27" y="7" as="offset" />
          </mxGeometry>
        </mxCell>
        <mxCell id="F09OvGw66oF53SCfcD_z-98" value="UI Editor" style="html=1;dropTarget=0;whiteSpace=wrap;" vertex="1" parent="F09OvGw66oF53SCfcD_z-95">
          <mxGeometry x="90" y="115" width="180" height="90" as="geometry" />
        </mxCell>
        <mxCell id="F09OvGw66oF53SCfcD_z-99" value="" style="shape=module;jettyWidth=8;jettyHeight=4;" vertex="1" parent="F09OvGw66oF53SCfcD_z-98">
          <mxGeometry x="1" width="20" height="20" relative="1" as="geometry">
            <mxPoint x="-27" y="7" as="offset" />
          </mxGeometry>
        </mxCell>
        <mxCell id="F09OvGw66oF53SCfcD_z-100" style="edgeStyle=orthogonalEdgeStyle;rounded=0;orthogonalLoop=1;jettySize=auto;html=1;exitX=0.5;exitY=1;exitDx=0;exitDy=0;entryX=0.25;entryY=0;entryDx=0;entryDy=0;" edge="1" parent="1" source="F09OvGw66oF53SCfcD_z-96" target="F09OvGw66oF53SCfcD_z-12">
          <mxGeometry relative="1" as="geometry" />
        </mxCell>
        <mxCell id="F09OvGw66oF53SCfcD_z-101" value="" style="group" vertex="1" connectable="0" parent="1">
          <mxGeometry x="1850" y="50" width="360" height="320" as="geometry" />
        </mxCell>
        <mxCell id="F09OvGw66oF53SCfcD_z-102" value="&amp;laquo;Annotation&amp;raquo;&lt;br/&gt;&lt;b&gt;Component&lt;/b&gt;" style="html=1;dropTarget=0;whiteSpace=wrap;" vertex="1" parent="F09OvGw66oF53SCfcD_z-101">
          <mxGeometry width="360" height="320" as="geometry" />
        </mxCell>
        <mxCell id="F09OvGw66oF53SCfcD_z-103" value="" style="shape=module;jettyWidth=8;jettyHeight=4;" vertex="1" parent="F09OvGw66oF53SCfcD_z-102">
          <mxGeometry x="1" width="20" height="20" relative="1" as="geometry">
            <mxPoint x="-27" y="7" as="offset" />
          </mxGeometry>
        </mxCell>
        <mxCell id="F09OvGw66oF53SCfcD_z-104" value="Role Editor" style="html=1;dropTarget=0;whiteSpace=wrap;" vertex="1" parent="F09OvGw66oF53SCfcD_z-101">
          <mxGeometry x="90" y="115" width="180" height="90" as="geometry" />
        </mxCell>
        <mxCell id="F09OvGw66oF53SCfcD_z-105" value="" style="shape=module;jettyWidth=8;jettyHeight=4;" vertex="1" parent="F09OvGw66oF53SCfcD_z-104">
          <mxGeometry x="1" width="20" height="20" relative="1" as="geometry">
            <mxPoint x="-27" y="7" as="offset" />
          </mxGeometry>
        </mxCell>
        <mxCell id="F09OvGw66oF53SCfcD_z-106" style="edgeStyle=orthogonalEdgeStyle;rounded=0;orthogonalLoop=1;jettySize=auto;html=1;exitX=0.5;exitY=1;exitDx=0;exitDy=0;entryX=0.75;entryY=0;entryDx=0;entryDy=0;" edge="1" parent="1" source="F09OvGw66oF53SCfcD_z-102" target="F09OvGw66oF53SCfcD_z-12">
          <mxGeometry relative="1" as="geometry" />
        </mxCell>
      </root>
    </mxGraphModel>
  </diagram>
</mxfile>
